<?xml version="1.0" encoding="utf-8"?>
<!-- Generator: Adobe Illustrator 13.0.0, SVG Export Plug-In . SVG Version: 6.00 Build 14948)  -->
<!DOCTYPE svg PUBLIC "-//W3C//DTD SVG 1.1//EN" "http://www.w3.org/Graphics/SVG/1.1/DTD/svg11.dtd">
<svg version="1.1" id="Layer_1" xmlns="http://www.w3.org/2000/svg" xmlns:xlink="http://www.w3.org/1999/xlink" x="0px" y="0px"
	 width="455.328px" height="455.32px" viewBox="0 0 455.328 455.32" enable-background="new 0 0 455.328 455.32"
	 xml:space="preserve">
<g>
	<path fill="#051C38" d="M227.657,0c62.86,0,119.784,25.485,160.978,66.681c41.197,41.199,66.693,98.125,66.693,160.975
		c0,62.861-25.496,119.784-66.693,160.978c-41.188,41.194-98.113,66.687-160.978,66.687c-62.851,0-119.777-25.492-160.972-66.687
		C25.489,347.434,0,290.51,0,227.656C0,164.806,25.489,107.88,66.685,66.681C107.88,25.49,164.807,0,227.657,0L227.657,0z
		 M364.847,90.475c-35.108-35.108-83.622-56.833-137.189-56.833c-53.56,0-102.067,21.724-137.183,56.833
		c-35.107,35.11-56.827,83.616-56.827,137.182c0,53.564,21.72,102.078,56.827,137.183c35.115,35.118,83.623,56.841,137.183,56.841
		c53.573,0,102.081-21.723,137.189-56.841c35.111-35.104,56.833-83.615,56.833-137.183
		C421.68,174.091,399.958,125.584,364.847,90.475z"/>
	<g>
		<polygon fill="#051C38" points="189.322,264.091 106.25,347.161 154.381,347.161 213.382,288.159 		"/>
		<path fill="#0277BD" d="M334.449,140.979c-1.635,19.026-10.268,36.376-25.897,52.01l-42.345,42.342l-24.065-24.06l45.13-45.139
			c8.022-8.023,12.38-17.142,13.06-27.329c1.339-20.053-14.169-36.622-34.94-34.939c-10.051,0.814-19.12,5.25-27.127,13.259
			l-59.406,59.414c56.998,57,113.358,113.762,170.221,170.625h-48.13c-56.985-56.977-113.266-113.583-170.629-170.626l80.883-80.894
			c15.637-15.637,33.063-24.051,52.213-25.698C304.884,66.385,337.966,100.033,334.449,140.979z"/>
	</g>
</g>
</svg>
